<svg preserveAspectRatio="none" width="100%" height="100%" overflow="visible" style="display: block;" viewBox="0 0 129 44" fill="none" xmlns="http://www.w3.org/2000/svg">
<g id="Logo Core 1" clip-path="url(#clip0_0_878)">
<path id="Vector" d="M74.0413 33.7335L75.1337 28.8646H64.1233L68.2845 10.2668H62.4238L57.1702 33.7335H74.0413Z" fill="var(--fill-0, white)"/>
<path id="Vector_2" d="M86.9278 10.2668L81.6739 33.7335H75.8135L81.0671 10.2668H86.9278Z" fill="var(--fill-0, white)"/>
<path id="Vector_3" d="M98.6609 33.7335C100.175 33.7335 101.418 33.3206 102.389 32.4946C103.314 31.7262 103.926 30.6711 104.227 29.3291L106.117 20.9506H96.3201L95.2797 25.527H99.5104L98.8344 28.4861C98.8112 28.7155 98.6725 28.8302 98.4182 28.8302L90.5768 28.8879L93.6659 15.1356H101.279C101.545 15.1356 101.643 15.2503 101.574 15.4797L101.14 17.3205H106.897L107.504 14.6711C107.805 13.2603 107.637 12.1707 107.001 11.4023C106.365 10.6453 105.336 10.2668 103.915 10.2668H93.4765C91.9391 10.2668 90.6732 10.7026 89.6791 11.5743C88.8005 12.3198 88.2053 13.3521 87.8932 14.6711L84.6334 29.3291C84.3444 30.6022 84.4368 31.6115 84.9108 32.357C85.4772 33.2747 86.5812 33.7335 88.2225 33.7335H98.6609Z" fill="var(--fill-0, white)"/>
<path id="Vector_4" d="M114.109 25.4926H117.23L119.432 33.7335H125.622L123.316 25.3549C124.31 25.1141 125.177 24.6209 125.917 23.8754C126.668 23.1184 127.16 22.2467 127.391 21.2603L128.848 14.6711C129.159 13.2603 128.992 12.1707 128.345 11.4023C127.709 10.6453 126.68 10.2668 125.258 10.2668H110.242L104.988 33.7335H110.849L114.993 15.1356H122.571C122.825 15.1356 122.917 15.2503 122.848 15.4797L121.79 20.2797C121.709 20.5091 121.565 20.6238 121.357 20.6238H115.219L114.109 25.4926Z" fill="var(--fill-0, white)"/>
<path id="Vector_5" d="M35.7981 15.6631L36.8652 19.3696L35.3241 17.4565L30.464 15.6631H35.7981Z" fill="var(--fill-0, white)"/>
<path id="Vector_6" d="M40.5611 24.5213L43.029 20.9239L40.6582 18.5326L43.9774 19.6087L43.266 24.035L42.9103 25.8261L35.3241 25.4674L40.5611 24.5213Z" fill="var(--fill-0, white)"/>
<path id="Vector_7" d="M23.7074 0L21.0996 5.38045L13.3947 4.30439L17.4249 6.93481L3.20051 12.913L13.7503 11.2391L0.592683 21.5217L7.7049 19.7283L0 30.7283L5.92692 26.9021L1.89658 39.0978L10.5498 32.4022L6.51954 44L15.7835 36.8544L18.0177 42.2067L20.6254 33.1194L41.2509 43.5217L36.8652 36.7064L36.8649 30.1304L40.6582 30.7283L42.792 28.5761L37.6364 29.167L30.9382 25.7065L26.7895 28.6953L24.7742 26.0652L29.1601 18.1739L23.3518 15.6631L25.0113 12.0761L30.464 9.92389L38.9987 14.1087L31.4124 2.86957L30.9382 6.57608L23.7074 0Z" fill="var(--fill-0, white)"/>
</g>
<defs>
<clipPath id="clip0_0_878">
<rect width="129" height="44" fill="white"/>
</clipPath>
</defs>
</svg>
